<?xml version="1.0" encoding="utf-8"?>
<svg xmlns="http://www.w3.org/2000/svg" width="16" height="16" viewBox="0 0 16 16" fill="none">
<path d="M12 4.6666C10.711 3.3776 10.7116 1.2884 12 0C6.4792 0 2 4.4758 2 10C2 13.3138 4.6862 16 8 16C11.3138 16 14 13.3138 14 10C14 7.918 13.3646 6.0326 12 4.6666ZM8.9056 14.5768C8.6528 13.8072 8.4764 13.024 8.3764 12.2332L11 9.6094L10.0572 8.6668L8.267 10.4562C8.2944 8.8934 8.6146 7.332 9.2318 5.8436L8 5.3334C7.5424 6.437 7.2318 7.6004 7.0684 8.7918L5.6094 7.3334L4.6666 8.2762L6.9466 10.5554C6.9348 11.914 7.1262 13.2884 7.5306 14.643C5.1772 14.4068 3.3334 12.4148 3.3334 10C3.3334 5.998 6.06 2.621 9.7534 1.629C9.7182 1.8594 9.6998 2.0952 9.6998 2.3334C9.6998 3.5704 10.1816 4.7344 11.0572 5.6094C12.3872 6.9408 12.6666 8.7316 12.6666 10C12.6666 12.2628 11.0468 14.1538 8.9056 14.5768Z" fill="#555555"/>
</svg>